<svg width="1397" height="287" viewBox="0 0 1397 287" fill="none" xmlns="http://www.w3.org/2000/svg">
<path d="M116.304 196.545L-101.726 77.4077L59.5227 -45.3359L116.304 196.545Z" fill="#3F784F"/>
<path d="M124.914 272.566L-10.0061 -11.3322L191.295 -34.672L124.914 272.566Z" fill="#34A253"/>
<path d="M132.062 169.098L13.5309 26.5507L214.832 3.21096L132.062 169.098Z" fill="#328C4B"/>
<path d="M590.421 142.393L589.131 -42.9918L759.602 66.5829L590.421 142.393Z" fill="#328C4B"/>
<path d="M786.062 179.098L667.531 36.5507L868.832 13.211L786.062 179.098Z" fill="#3F784F"/>
<path d="M299.949 249.381L262.545 78.4033L418.537 120.659L299.949 249.381Z" fill="#3F784F"/>
<path d="M881.899 132.081L755.664 -0.930674L894.455 -50.8667L881.899 132.081Z" fill="#328C4B"/>
<path d="M209.248 94.1975L93.5773 -23.6743L294.879 -47.0141L209.248 94.1975Z" fill="#34A253"/>
<path d="M411.992 269.74L277.144 -13.537L478.445 -36.8768L411.992 269.74Z" fill="#34A253"/>
<path d="M411.062 139.098L292.531 -3.44926L493.832 -26.789L411.062 139.098Z" fill="#328C4B"/>
<path d="M552.281 187.112L426.607 -17.0415L627.909 -40.3812L552.281 187.112Z" fill="#34A253"/>
<path d="M719.062 142.098L600.531 -0.449264L801.832 -23.789L719.062 142.098Z" fill="#34A253"/>
<path d="M878.96 263.092L746.255 -1.70076L947.557 -25.0405L878.96 263.092Z" fill="#34A253"/>
<path d="M246.837 142.425L224.973 -41.6707L406.555 48.301L246.837 142.425Z" fill="#34A253"/>
<path d="M1013.38 178.609L890.111 -4.82151L1091.41 -28.1613L1013.38 178.609Z" fill="#34A253"/>
<path d="M1252.58 204.278L960.44 50.5356L1105.3 -91.1732L1252.58 204.278Z" fill="#34A253"/>
<path d="M1241.82 193.289L1167.47 147.636L1193.81 120.441L1241.82 193.289Z" fill="#328C4B"/>
<path d="M1103.93 238.813L1150.3 -115.305L1335.51 -33.0704L1103.93 238.813Z" fill="#34A253"/>
<path d="M1133.67 139.721L1022.65 -6.22978L1166.05 -40.776L1133.67 139.721Z" fill="#328C4B"/>
<path d="M870.221 135.577L759.199 -10.3738L902.598 -44.92L870.221 135.577Z" fill="#328C4B"/>
<path d="M288.221 118.577L177.199 -27.3738L320.598 -61.92L288.221 118.577Z" fill="#328C4B"/>
<path d="M538.759 54.1657L483.409 -2.49071L562.235 -21.4806L538.759 54.1657Z" fill="#328C4B"/>
</svg>
